<?xml version="1.0" standalone="no"?>
<svg xmlns:xlink="http://www.w3.org/1999/xlink" id="wave" style="transform:rotate(0deg); transition: 0.3s" viewBox="0 0 1440 490" version="1.1" xmlns="http://www.w3.org/2000/svg"><defs><linearGradient id="sw-gradient-0" x1="0" x2="0" y1="1" y2="0"><stop stop-color="rgba(26, 26, 26, 1)" offset="0%"/><stop stop-color="rgba(0, 0, 0, 1)" offset="100%"/></linearGradient></defs><path style="transform:translate(0, 0px); opacity:1" fill="url(#sw-gradient-0)" d="M0,98L48,106.2C96,114,192,131,288,138.8C384,147,480,147,576,163.3C672,180,768,212,864,196C960,180,1056,114,1152,106.2C1248,98,1344,147,1440,171.5C1536,196,1632,196,1728,196C1824,196,1920,196,2016,204.2C2112,212,2208,229,2304,228.7C2400,229,2496,212,2592,204.2C2688,196,2784,196,2880,228.7C2976,261,3072,327,3168,302.2C3264,278,3360,163,3456,130.7C3552,98,3648,147,3744,187.8C3840,229,3936,261,4032,245C4128,229,4224,163,4320,138.8C4416,114,4512,131,4608,171.5C4704,212,4800,278,4896,326.7C4992,376,5088,408,5184,351.2C5280,294,5376,147,5472,73.5C5568,0,5664,0,5760,24.5C5856,49,5952,98,6048,163.3C6144,229,6240,310,6336,294C6432,278,6528,163,6624,122.5C6720,82,6816,114,6864,130.7L6912,147L6912,490L6864,490C6816,490,6720,490,6624,490C6528,490,6432,490,6336,490C6240,490,6144,490,6048,490C5952,490,5856,490,5760,490C5664,490,5568,490,5472,490C5376,490,5280,490,5184,490C5088,490,4992,490,4896,490C4800,490,4704,490,4608,490C4512,490,4416,490,4320,490C4224,490,4128,490,4032,490C3936,490,3840,490,3744,490C3648,490,3552,490,3456,490C3360,490,3264,490,3168,490C3072,490,2976,490,2880,490C2784,490,2688,490,2592,490C2496,490,2400,490,2304,490C2208,490,2112,490,2016,490C1920,490,1824,490,1728,490C1632,490,1536,490,1440,490C1344,490,1248,490,1152,490C1056,490,960,490,864,490C768,490,672,490,576,490C480,490,384,490,288,490C192,490,96,490,48,490L0,490Z"/><defs><linearGradient id="sw-gradient-1" x1="0" x2="0" y1="1" y2="0"><stop stop-color="rgba(0, 0, 0, 1)" offset="0%"/><stop stop-color="rgba(26, 26, 26, 1)" offset="100%"/></linearGradient></defs><path style="transform:translate(0, 50px); opacity:0.9" fill="url(#sw-gradient-1)" d="M0,343L48,326.7C96,310,192,278,288,269.5C384,261,480,278,576,285.8C672,294,768,294,864,277.7C960,261,1056,229,1152,236.8C1248,245,1344,294,1440,294C1536,294,1632,245,1728,220.5C1824,196,1920,196,2016,204.2C2112,212,2208,229,2304,204.2C2400,180,2496,114,2592,147C2688,180,2784,310,2880,318.5C2976,327,3072,212,3168,196C3264,180,3360,261,3456,302.2C3552,343,3648,343,3744,285.8C3840,229,3936,114,4032,122.5C4128,131,4224,261,4320,294C4416,327,4512,261,4608,245C4704,229,4800,261,4896,245C4992,229,5088,163,5184,138.8C5280,114,5376,131,5472,155.2C5568,180,5664,212,5760,204.2C5856,196,5952,147,6048,130.7C6144,114,6240,131,6336,155.2C6432,180,6528,212,6624,196C6720,180,6816,114,6864,81.7L6912,49L6912,490L6864,490C6816,490,6720,490,6624,490C6528,490,6432,490,6336,490C6240,490,6144,490,6048,490C5952,490,5856,490,5760,490C5664,490,5568,490,5472,490C5376,490,5280,490,5184,490C5088,490,4992,490,4896,490C4800,490,4704,490,4608,490C4512,490,4416,490,4320,490C4224,490,4128,490,4032,490C3936,490,3840,490,3744,490C3648,490,3552,490,3456,490C3360,490,3264,490,3168,490C3072,490,2976,490,2880,490C2784,490,2688,490,2592,490C2496,490,2400,490,2304,490C2208,490,2112,490,2016,490C1920,490,1824,490,1728,490C1632,490,1536,490,1440,490C1344,490,1248,490,1152,490C1056,490,960,490,864,490C768,490,672,490,576,490C480,490,384,490,288,490C192,490,96,490,48,490L0,490Z"/></svg>