<?xml version="1.0" standalone="no"?>
<svg xmlns:xlink="http://www.w3.org/1999/xlink" id="wave" style="transform:rotate(0deg); transition: 0.3s" viewBox="0 0 1440 490" version="1.1" xmlns="http://www.w3.org/2000/svg"><defs><linearGradient id="sw-gradient-0" x1="0" x2="0" y1="1" y2="0"><stop stop-color="rgba(26, 26, 26, 1)" offset="0%"/><stop stop-color="rgba(0, 0, 0, 0)" offset="100%"/></linearGradient></defs><path style="transform:translate(0, 0px); opacity:1" fill="url(#sw-gradient-0)" d="M0,147L80,122.5C160,98,320,49,480,89.8C640,131,800,261,960,269.5C1120,278,1280,163,1440,130.7C1600,98,1760,147,1920,155.2C2080,163,2240,131,2400,138.8C2560,147,2720,196,2880,245C3040,294,3200,343,3360,367.5C3520,392,3680,392,3840,392C4000,392,4160,392,4320,367.5C4480,343,4640,294,4800,228.7C4960,163,5120,82,5280,49C5440,16,5600,33,5760,57.2C5920,82,6080,114,6240,130.7C6400,147,6560,147,6720,147C6880,147,7040,147,7200,187.8C7360,229,7520,310,7680,285.8C7840,261,8000,131,8160,98C8320,65,8480,131,8640,171.5C8800,212,8960,229,9120,204.2C9280,180,9440,114,9600,122.5C9760,131,9920,212,10080,212.3C10240,212,10400,131,10560,106.2C10720,82,10880,114,11040,163.3C11200,212,11360,278,11440,310.3L11520,343L11520,490L11440,490C11360,490,11200,490,11040,490C10880,490,10720,490,10560,490C10400,490,10240,490,10080,490C9920,490,9760,490,9600,490C9440,490,9280,490,9120,490C8960,490,8800,490,8640,490C8480,490,8320,490,8160,490C8000,490,7840,490,7680,490C7520,490,7360,490,7200,490C7040,490,6880,490,6720,490C6560,490,6400,490,6240,490C6080,490,5920,490,5760,490C5600,490,5440,490,5280,490C5120,490,4960,490,4800,490C4640,490,4480,490,4320,490C4160,490,4000,490,3840,490C3680,490,3520,490,3360,490C3200,490,3040,490,2880,490C2720,490,2560,490,2400,490C2240,490,2080,490,1920,490C1760,490,1600,490,1440,490C1280,490,1120,490,960,490C800,490,640,490,480,490C320,490,160,490,80,490L0,490Z"/><defs><linearGradient id="sw-gradient-1" x1="0" x2="0" y1="1" y2="0"><stop stop-color="rgba(0, 0, 0, 1)" offset="0%"/><stop stop-color="rgba(26, 26, 26, 1)" offset="100%"/></linearGradient></defs><path style="transform:translate(0, 50px); opacity:0.9" fill="url(#sw-gradient-1)" d="M0,441L80,367.5C160,294,320,147,480,130.7C640,114,800,229,960,285.8C1120,343,1280,343,1440,285.8C1600,229,1760,114,1920,81.7C2080,49,2240,98,2400,163.3C2560,229,2720,310,2880,326.7C3040,343,3200,294,3360,245C3520,196,3680,147,3840,106.2C4000,65,4160,33,4320,49C4480,65,4640,131,4800,204.2C4960,278,5120,359,5280,351.2C5440,343,5600,245,5760,228.7C5920,212,6080,278,6240,253.2C6400,229,6560,114,6720,106.2C6880,98,7040,196,7200,196C7360,196,7520,98,7680,114.3C7840,131,8000,261,8160,269.5C8320,278,8480,163,8640,155.2C8800,147,8960,245,9120,269.5C9280,294,9440,245,9600,220.5C9760,196,9920,196,10080,171.5C10240,147,10400,98,10560,89.8C10720,82,10880,114,11040,122.5C11200,131,11360,114,11440,106.2L11520,98L11520,490L11440,490C11360,490,11200,490,11040,490C10880,490,10720,490,10560,490C10400,490,10240,490,10080,490C9920,490,9760,490,9600,490C9440,490,9280,490,9120,490C8960,490,8800,490,8640,490C8480,490,8320,490,8160,490C8000,490,7840,490,7680,490C7520,490,7360,490,7200,490C7040,490,6880,490,6720,490C6560,490,6400,490,6240,490C6080,490,5920,490,5760,490C5600,490,5440,490,5280,490C5120,490,4960,490,4800,490C4640,490,4480,490,4320,490C4160,490,4000,490,3840,490C3680,490,3520,490,3360,490C3200,490,3040,490,2880,490C2720,490,2560,490,2400,490C2240,490,2080,490,1920,490C1760,490,1600,490,1440,490C1280,490,1120,490,960,490C800,490,640,490,480,490C320,490,160,490,80,490L0,490Z"/></svg>